# xmcd
#
# Track frame offsets:
#	150
#	12090
#	25126
#	40581
#	51662
#	61038
#	70932
#	87869
#	102932
#	119717
#	132201
#	143734
#	152829
#	170140
#
# Disc length: 2525 seconds
# Revision: 0
# Processed by: cddbd v1.5.2PL0 Copyright (c) Steve Scherf et al.
# Submitted via: dBpowerAMP V12.0
#
DISCID=be09db0e
DTITLE=Feller and Hill - I Firmly Promise You
DYEAR=2015
DGENRE=Country Gospel
TTITLE0=Little Community Church
TTITLE1=The First Million Years
TTITLE2=What a Beautiful Day
TTITLE3=Fountain of Love
TTITLE4=I'll Live Again
TTITLE5=Echoes From the Burning Bush
TTITLE6=Build My Mansion
TTITLE7=I Found a Hiding Place
TTITLE8=I Firmly Promise You
TTITLE9=Let My People Live
TTITLE10=In the Garden
TTITLE11=Let the Savior In
TTITLE12=Walking My Lord Up Calvary's Hill
TTITLE13=I'm Ready to Go
EXTD=
EXTT0=
EXTT1=
EXTT2=
EXTT3=
EXTT4=
EXTT5=
EXTT6=
EXTT7=
EXTT8=
EXTT9=
EXTT10=
EXTT11=
EXTT12=
EXTT13=
PLAYORDER=
